<svg xmlns="http://www.w3.org/2000/svg">
    <symbol id="logo" viewBox="0 0 19 18">
        <path d="M3.54205 13.1004C3.54205 13.1004 4.80391 16.8843 9.53424 18.0001V16.5937C14.3575 16.5937 18.2675 13.5561 18.2675 8.73321C18.2675 3.91037 14.3575 0 9.53424 0C4.71158 0 0.801025 3.91037 0.801025 8.73321C0.801025 9.16482 0.833368 9.58853 0.893357 10.0032C1.46933 6.30502 4.67436 3.41975 9.31579 2.50143C9.35319 2.0152 9.39072 1.52759 9.43366 0.97294C13.2236 1.65606 15.3561 5.66996 15.3561 5.66996C15.3561 5.66996 13.5124 9.00009 9.59068 10.2123L9.5976 8.27855C5.05175 9.73452 3.54205 13.1004 3.54205 13.1004Z"
              fill="url(#paint0_linear_3930_401)"/>
        <defs>
            <linearGradient id="paint0_linear_3930_401" x1="0.534194" y1="-2.8125" x2="14.0343" y2="20.5"
                            gradientUnits="userSpaceOnUse">
                <stop stop-color="#00D5C7"/>
                <stop offset="1" stop-color="#FFEE57"/>
            </linearGradient>
        </defs>
    </symbol>
    <symbol id="rus" viewBox="0 0 45 16">
        <g>
            <path d="M13.0813 15.7101L9.59603 9.82029C11.269 9.42609 12.9884 7.96522 12.9884 5.22899C12.9884 2.35363 11.0134 0.243481 7.78366 0.243481H0.53418V15.7101H3.83362V10.2145H6.25011L9.29396 15.7101H13.0813ZM7.29571 7.31594H3.83362V3.14203H7.29571C8.62014 3.14203 9.61926 3.93044 9.61926 5.22899C9.61926 6.52754 8.62014 7.31594 7.29571 7.31594Z"
                  fill="currentColor"/>
            <path d="M22.4587 15.9884C27.1755 15.9884 29.4526 13.3681 29.4526 9.51884V0.243481H26.0834V9.42609C26.0834 11.5826 24.8519 13.0667 22.4587 13.0667C20.0654 13.0667 18.8107 11.5826 18.8107 9.42609V0.243481H15.4648V9.54203C15.4648 13.3449 17.7419 15.9884 22.4587 15.9884Z"
                  fill="currentColor"/>
            <path d="M38.0125 15.9884C42.1949 15.9884 44.2164 13.8551 44.2164 11.0261C44.2164 5.25218 35.3172 6.89855 35.3172 4.44058C35.3172 3.51305 36.1072 2.88696 37.5245 2.88696C39.1046 2.88696 40.7775 3.42029 42.0322 4.57971L43.8678 2.16812C42.3343 0.753626 40.2896 0.0115967 37.8266 0.0115967C34.1786 0.0115967 31.948 2.14493 31.948 4.71884C31.948 10.5391 40.8705 8.66087 40.8705 11.3971C40.8705 12.2783 39.9875 13.113 38.1751 13.113C36.0375 13.113 34.3413 12.1623 33.2492 11.0261L31.4601 13.5304C32.9007 14.9913 35.0383 15.9884 38.0125 15.9884Z"
                  fill="currentColor"/>
        </g>
    </symbol>
    <symbol id="ec" viewBox="0 0 28 16">
        <g>
            <path d="M10.9672 15.7217V12.8232H3.29944V9.32174H10.8045V6.42319H3.29944V3.15362H10.9672V0.255072H0V15.7217H10.9672Z"
                  fill="currentColor"/>
            <path d="M21.0515 16C24.4672 16 26.4189 14.1217 27.5342 12.1971L24.6995 10.829C24.0489 12.1043 22.6548 13.0783 21.0515 13.0783C18.24 13.0783 16.1953 10.9217 16.1953 8C16.1953 5.07826 18.24 2.92174 21.0515 2.92174C22.6548 2.92174 24.0489 3.91884 24.6995 5.17101L27.5342 3.77971C26.4422 1.85507 24.4672 0 21.0515 0C16.4044 0 12.8029 3.24638 12.8029 8C12.8029 12.7536 16.4044 16 21.0515 16Z"
                  fill="currentColor"/>
        </g>
    </symbol>
    <symbol id="call" viewBox="0 0 24 24">
        <path d="M6.5325 3.61307C6.21421 3.83674 5.73913 4.23444 5.16024 4.91438C4.48981 5.70184 4.08498 6.63876 4.10421 7.58059C4.14871 9.76028 5.15893 12.8115 8.17459 15.8272C11.2612 18.9138 14.3229 19.9083 16.4923 19.9154C17.3875 19.9183 18.2749 19.529 19.0295 18.8935C19.7348 18.2994 20.15 17.8033 20.3836 17.471C20.3777 17.4582 20.3641 17.4364 20.3347 17.4129L17.0179 14.7594C16.9184 14.6798 16.775 14.6878 16.685 14.7779L16.052 15.4108C15.1895 16.2733 13.803 16.5045 12.7311 15.7711C10.8957 14.5154 9.42306 13.0092 8.22991 11.2697C7.49172 10.1934 7.72445 8.79816 8.59617 7.93396L9.22085 7.31467C9.31161 7.2247 9.3199 7.08075 9.24006 6.98096L6.57993 3.6558C6.56428 3.63624 6.54884 3.6234 6.53671 3.61564C6.53523 3.6147 6.53383 3.61384 6.5325 3.61307ZM4.01811 3.94199C4.68646 3.15697 5.264 2.66771 5.6962 2.36754C6.43833 1.85211 7.30361 2.15923 7.75124 2.71876L10.4114 6.04391C10.9702 6.74248 10.9122 7.75008 10.2769 8.37992L9.65223 8.9992C9.23923 9.40864 9.18185 10.0056 9.4669 10.4212C10.5592 12.0137 11.9013 13.3859 13.5781 14.5331C13.9903 14.8151 14.5824 14.7591 14.9913 14.3501L15.6243 13.7172C16.2548 13.0867 17.2586 13.0311 17.9549 13.5881L21.2718 16.2416C21.8409 16.6969 22.1415 17.5735 21.622 18.3176C21.3114 18.7624 20.8047 19.3594 19.9958 20.0407C19.0433 20.8429 17.8239 21.4198 16.4874 21.4154C13.8678 21.4068 10.4399 20.2138 7.11393 16.8879C3.85533 13.6293 2.65777 10.2196 2.60452 7.61121C2.57603 6.21564 3.17298 4.93464 4.01811 3.94199Z"
              fill="currentColor"/>
    </symbol>
    <symbol id="mail" viewBox="0 0 24 24">
        <path d="M5 5.5H19C19.6497 5.5 20.203 5.91311 20.4114 6.49099L13.2481 11.2666C12.4923 11.7704 11.5077 11.7704 10.7519 11.2666L3.58857 6.49099C3.79701 5.91311 4.35026 5.5 5 5.5ZM3.5 8.23472V17C3.5 17.8284 4.17157 18.5 5 18.5H19C19.8284 18.5 20.5 17.8284 20.5 17V8.23472L14.0801 12.5146C12.8205 13.3544 11.1795 13.3544 9.91987 12.5146L3.5 8.23472ZM2 7C2 5.34315 3.34315 4 5 4H19C20.6569 4 22 5.34315 22 7V17C22 18.6569 20.6569 20 19 20H5C3.34315 20 2 18.6569 2 17V7Z"
              fill="currentColor"/>
    </symbol>
    <symbol id="arrow_slide" viewBox="0 0 24 24">
        <path d="M14.5303 18.5303C14.2374 18.8232 13.7626 18.8232 13.4697 18.5303L7.46967 12.5303C7.17678 12.2374 7.17678 11.7626 7.46967 11.4697L13.4697 5.46967C13.7626 5.17678 14.2374 5.17678 14.5303 5.46967C14.8232 5.76256 14.8232 6.23744 14.5303 6.53033L9.06066 12L14.5303 17.4697C14.8232 17.7626 14.8232 18.2374 14.5303 18.5303Z"
              fill="currentColor"/>
    </symbol>
    <symbol id="arrow" viewBox="0 0 24 24">
        <path d="M11.4697 5.46967C11.7626 5.17678 12.2374 5.17678 12.5303 5.46967L18.5303 11.4697C18.8232 11.7626 18.8232 12.2374 18.5303 12.5303L12.5303 18.5303C12.2374 18.8232 11.7626 18.8232 11.4697 18.5303C11.1768 18.2374 11.1768 17.7626 11.4697 17.4697L16.1893 12.75H6C5.58579 12.75 5.25 12.4142 5.25 12C5.25 11.5858 5.58579 11.25 6 11.25H16.1893L11.4697 6.53033C11.1768 6.23744 11.1768 5.76256 11.4697 5.46967Z"
              fill="currentColor"/>
    </symbol>
    <symbol id="pin" viewBox="0 0 24 24">
        <path fill-rule="evenodd" clip-rule="evenodd"
              d="M12 12C13.1046 12 14 11.1046 14 10C14 8.89543 13.1046 8 12 8C10.8954 8 10 8.89543 10 10C10 11.1046 10.8954 12 12 12ZM12 13.5C13.933 13.5 15.5 11.933 15.5 10C15.5 8.067 13.933 6.5 12 6.5C10.067 6.5 8.5 8.067 8.5 10C8.5 11.933 10.067 13.5 12 13.5Z"
              fill="currentColor"/>
        <path fill-rule="evenodd" clip-rule="evenodd"
              d="M16.1185 16.1287C17.4819 14.3107 18.5 12.159 18.5 9.80488C18.5 6.35749 15.625 3.5 12 3.5C8.37502 3.5 5.5 6.35749 5.5 9.80488C5.5 12.159 6.51813 14.3107 7.88146 16.1287C9.24149 17.9424 10.8671 19.3181 11.8832 20.0846C11.9274 20.118 11.9675 20.1275 12 20.1275C12.0325 20.1275 12.0726 20.118 12.1168 20.0846C13.1329 19.3181 14.7585 17.9424 16.1185 16.1287ZM13.0201 21.2821C15.1763 19.6555 20 15.392 20 9.80488C20 5.49436 16.4183 2 12 2C7.58172 2 4 5.49436 4 9.80488C4 15.392 8.82374 19.6555 10.9799 21.2821C11.5904 21.7427 12.4096 21.7427 13.0201 21.2821Z"
              fill="currentColor"/>
    </symbol>
    <symbol id="login" viewBox="0 0 24 24">
        <path fill-rule="evenodd"
              d="M6.75 2.25C4.67893 2.25 3 3.92893 3 6V18C3 20.0711 4.67893 21.75 6.75 21.75H12.75C14.8211 21.75 16.5 20.0711 16.5 18V17C16.5 16.5858 16.1642 16.25 15.75 16.25C15.3358 16.25 15 16.5858 15 17V18C15 19.2426 13.9926 20.25 12.75 20.25H6.75C5.50736 20.25 4.5 19.2426 4.5 18V6C4.5 4.75736 5.50736 3.75 6.75 3.75H12.75C13.9926 3.75 15 4.75736 15 6V7C15 7.41421 15.3358 7.75 15.75 7.75C16.1642 7.75 16.5 7.41421 16.5 7V6C16.5 3.92893 14.8211 2.25 12.75 2.25H6.75ZM11.7803 9.53033C12.0732 9.23744 12.0732 8.76256 11.7803 8.46967C11.4874 8.17678 11.0126 8.17678 10.7197 8.46967L7.71967 11.4697C7.42678 11.7626 7.42678 12.2374 7.71967 12.5303L10.7197 15.5303C11.0126 15.8232 11.4874 15.8232 11.7803 15.5303C12.0732 15.2374 12.0732 14.7626 11.7803 14.4697L10.0607 12.75H20.25C20.6642 12.75 21 12.4142 21 12C21 11.5858 20.6642 11.25 20.25 11.25H10.0607L11.7803 9.53033Z"
              fill="currentColor"/>
    </symbol>
    <symbol id="coin" viewBox="0 0 24 24">
        <circle cx="12" cy="12" r="12" fill="url(#paint0_linear_4528_628)"/>
        <path d="M11 4H13V6H15.9522V7.82227H10.2149V11.0801H15.5403V12.9023H10.2149V16.1777H16V18H13V20H11V18H8V6H11V4Z"
              fill="white"/>
        <defs>
            <linearGradient id="paint0_linear_4528_628" x1="3.5" y1="4" x2="11.4725" y2="24.2081"
                            gradientUnits="userSpaceOnUse">
                <stop stop-color="#00D5C7"/>
                <stop offset="1" stop-color="#FFEE57"/>
            </linearGradient>
        </defs>
    </symbol>
    <symbol id="checkbox_enabled" viewBox="0 0 20 20">
        <rect x="1" y="1" width="18" height="18" rx="4" fill="#07C88E"/>
        <g>
            <path d="M15.7574 5.19771C16.0624 5.47795 16.0825 5.9524 15.8023 6.25742L8.91167 13.7574C8.77168 13.9098 8.57497 13.9976 8.36808 14C8.16119 14.0024 7.96249 13.9192 7.81901 13.7701L4.20964 10.0201C3.92239 9.72167 3.93146 9.24688 4.2299 8.95964C4.52833 8.67239 5.00312 8.68147 5.29037 8.9799L8.34667 12.1553L14.6977 5.24259C14.9779 4.93756 15.4524 4.91747 15.7574 5.19771Z"
                  fill="white"/>
        </g>
    </symbol>
    <symbol id="checkbox_disabled" viewBox="0 0 20 20">
        <rect x="1" y="1" width="18" height="18" rx="4" fill="white"/>
        <rect x="1.75" y="1.75" width="16.5" height="16.5" rx="3.25" fill="white" stroke="#000B26" stroke-opacity="0.4"
              stroke-width="1.5"/>
    </symbol>
    <symbol id="close" viewBox="0 0 32 32">
        <path d="M24.7071 8.70711C25.0976 8.31658 25.0976 7.68342 24.7071 7.29289C24.3166 6.90237 23.6834 6.90237 23.2929 7.29289L16 14.5858L8.70711 7.29289C8.31658 6.90237 7.68342 6.90237 7.29289 7.29289C6.90237 7.68342 6.90237 8.31658 7.29289 8.70711L14.5858 16L7.29289 23.2929C6.90237 23.6834 6.90237 24.3166 7.29289 24.7071C7.68342 25.0976 8.31658 25.0976 8.70711 24.7071L16 17.4142L23.2929 24.7071C23.6834 25.0976 24.3166 25.0976 24.7071 24.7071C25.0976 24.3166 25.0976 23.6834 24.7071 23.2929L17.4142 16L24.7071 8.70711Z"
              fill="currentColor"/>
    </symbol>
    <symbol id="menu" viewBox="0 0 24 24">
        <path d="M2.25 6C2.25 5.58579 2.58579 5.25 3 5.25H21C21.4142 5.25 21.75 5.58579 21.75 6C21.75 6.41421 21.4142 6.75 21 6.75H3C2.58579 6.75 2.25 6.41421 2.25 6ZM2.25 18C2.25 17.5858 2.58579 17.25 3 17.25L21 17.25C21.4142 17.25 21.75 17.5858 21.75 18C21.75 18.4142 21.4142 18.75 21 18.75L3 18.75C2.58579 18.75 2.25 18.4142 2.25 18ZM3 11.25C2.58579 11.25 2.25 11.5858 2.25 12C2.25 12.4142 2.58579 12.75 3 12.75L21 12.75C21.4142 12.75 21.75 12.4142 21.75 12C21.75 11.5858 21.4142 11.25 21 11.25L3 11.25Z"
              fill="currentColor"/>
    </symbol>
</svg>